<?xml version="1.0" standalone="no"?>
<!DOCTYPE svg PUBLIC "-//W3C//DTD SVG 1.1//EN" "http://www.w3.org/Graphics/SVG/1.1/DTD/svg11.dtd" >
<svg xmlns="http://www.w3.org/2000/svg" xmlns:xlink="http://www.w3.org/1999/xlink" version="1.1">
<metadata></metadata>
<defs>
<font id="restaurant_menuregular" horiz-adv-x="1107" >
<font-face units-per-em="2048" ascent="1536" descent="-512" />
<missing-glyph horiz-adv-x="522" />
<glyph horiz-adv-x="0" />
<glyph unicode="&#xd;" horiz-adv-x="522" />
<glyph horiz-adv-x="0" />
<glyph horiz-adv-x="0" />
<glyph unicode=" "  horiz-adv-x="522" />
<glyph unicode="&#x09;" horiz-adv-x="522" />
<glyph unicode="&#xa0;" horiz-adv-x="522" />
<glyph unicode="," horiz-adv-x="542" d="M-20 -246l98 563h397l-2 -12l78 -96l-55 -322l-156 -229h-270l-78 96h-12zM45 -188h188l129 188l46 260h-283zM94 -147l64 366h200l-36 -211l-107 -155h-121z" />
<glyph unicode="." horiz-adv-x="542" d="M14 -57l70 397h397l-2 -12l78 -97l-68 -385h-385l-77 97h-13zM82 0h283l49 283h-283zM129 41l35 201h201l-35 -201h-201z" />
<glyph unicode="0" horiz-adv-x="1105" d="M82 352l125 707q14 86 59 160.5t110.5 131t146.5 88t167 31.5h141q104 0 182.5 -46t119.5 -124l47 -55q45 -55 64.5 -129t2.5 -160l-125 -706q-14 -84 -59 -158t-109.5 -128t-143.5 -86t-163 -32h-141q-86 0 -153.5 32t-112.5 87l-47 55q-68 55 -99 141.5t-12 190.5z M139 352q-12 -74 4.5 -137t56.5 -111.5t99 -76t133 -27.5h141q74 0 142.5 27.5t125 76t95.5 112t51 136.5l125 707q12 74 -4 138.5t-56 112.5t-98.5 75.5t-132.5 27.5h-141q-74 0 -143.5 -27.5t-126 -75.5t-95.5 -112.5t-51 -138.5zM180 352l125 707q12 66 46 123t84 99 t111.5 66.5t127.5 24.5h141q63 0 115.5 -24.5t87.5 -67.5t49 -100.5t4 -120.5l-125 -707q-12 -66 -46 -122t-84 -98t-111.5 -66.5t-124.5 -24.5h-142q-66 0 -118 24.5t-86.5 66.5t-50 98.5t-3.5 121.5zM381 352q-20 -111 92 -110h141q114 -1 134 110l124 707q18 113 -94 112 h-141q-113 0 -131 -112zM422 352l125 707q12 72 84 71h141q72 0 59 -71l-124 -707q-12 -70 -84 -69h-142q-72 0 -59 69zM573 340h60q12 0 16 12l111 625h-53q-23 0 -25 -21z" />
<glyph unicode="1" horiz-adv-x="729" d="M197 -57l182 1034h-74l-80 96h-12l70 397h579l-2 -12l80 -96l-268 -1516h-385l-78 97h-12zM264 0h283l192 1096h-282zM281 1130h464l50 283h-465zM311 41l178 1014h201l-178 -1014h-201zM328 1171l37 201h383l-37 -201h-383z" />
<glyph unicode="2" horiz-adv-x="1060" d="M16 -57l84 481q14 82 58.5 155.5t107 129t140 89t159.5 38.5h-284l-78 96h-13l23 129q14 86 59 160.5t112 130t146.5 88.5t165.5 33h90q104 0 182.5 -46.5t121.5 -123.5l45 -56q47 -55 65.5 -129t1.5 -160l-37 -213q-16 -84 -60 -157.5t-108.5 -127.5t-143.5 -86 t-163 -32h-90q-4 0 -6 -1t-6 -1h409l-2 -12l78 -97l-67 -385h-900l-77 97h-13zM84 0h283l73 424q12 72 84 72h90q74 0 142.5 27.5t125 75.5t95.5 111.5t51 137.5l39 213q12 74 -4 138.5t-55 112.5t-98.5 75.5t-133.5 27.5h-90q-74 0 -142.5 -27.5t-125 -75.5t-96 -112.5 t-52.5 -138.5l-12 -72h283q4 23 7 48.5t12 46t26.5 33.5t50.5 13h90q72 0 59 -69l-38 -213q-12 -70 -82 -70h-91q-74 0 -143.5 -27.5t-125.5 -75.5t-96 -112.5t-52 -138.5zM131 41l68 383q12 63 47 120.5t85 100.5t110.5 67.5t125.5 24.5h90q113 0 131 111l39 213 q18 111 -94 110h-90q-41 0 -66.5 -12t-40 -32.5t-21.5 -45t-11 -51.5h-199l6 31q12 63 47 120.5t85.5 100.5t110.5 67.5t126 24.5h90q63 0 116.5 -24.5t88.5 -67.5t49 -100.5t2 -120.5l-39 -213q-10 -66 -45 -122t-84 -98t-110.5 -66.5t-124.5 -24.5h-91q-115 0 -133 -113 l-67 -383h-201zM403 0h478l49 283h-477zM451 41l34 201h396l-35 -201h-395zM666 836h8q16 0 16 12l25 129h-2q-16 0 -22.5 -21.5t-10.5 -44.5z" />
<glyph unicode="3" horiz-adv-x="1077" d="M90 352l23 129h252l-23 27h-12l57 328h-104l-78 96h-12l22 127q14 86 59 160.5t112 130t146.5 88t165.5 32.5h99q104 0 183 -48t122 -126l45 -53q45 -55 63.5 -129t3.5 -158l-24 -141q-14 -86 -98 -207q45 -94 22 -215l-24 -143q-14 -84 -59.5 -158t-110 -128t-144.5 -86 t-164 -32h-98q-86 0 -153.5 32t-112.5 87l-47 55q-68 55 -98.5 141.5t-12.5 190.5zM147 352q-12 -74 4.5 -137t56.5 -111.5t99.5 -76t132.5 -27.5h99q74 0 142.5 27.5t124.5 76t96 112t52 136.5l25 144q12 76 -3 140t-55 111.5t-100.5 74t-134.5 26.5h-240l-49 -283h142h98 q72 0 59 -69l-24 -144q-12 -70 -84 -69h-99q-33 0 -46 13t-14 33.5t4 45t9 49.5h-282zM188 352l5 31h198q-6 -27 -7 -52.5t7 -45t29.5 -31.5t60.5 -12h99q113 0 133 110l24 144q18 111 -92 110h-199l35 201h199q66 0 119 -23.5t88 -65.5t49 -98.5t2 -123.5l-25 -144 q-12 -66 -47 -122t-85 -98t-111.5 -66.5t-124.5 -24.5h-99q-66 0 -118 24.5t-86.5 66.5t-50 98.5t-3.5 121.5zM260 989h283q4 23 7 48.5t12 46t26.5 33.5t50.5 13h98q72 0 60 -71l-27 -141q-2 -18 -16 -39q70 -10 127 -45t92 -93q63 84 80 177l26 141q12 74 -4 138.5 t-56 112.5t-99.5 75.5t-133.5 27.5h-98q-74 0 -142.5 -27.5t-126 -75.5t-96 -112.5t-51.5 -138.5zM307 1030l6 29q10 63 45 120.5t85.5 100.5t111.5 67.5t127 24.5h98q63 0 116.5 -24.5t88.5 -67.5t49.5 -100.5t3.5 -120.5l-26 -141q-8 -53 -35 -105q-33 41 -74 63.5 t-92 34.5v2v5l27 141q18 113 -95 112h-98q-41 0 -66.5 -12t-40 -32.5t-21.5 -45t-11 -51.5h-199zM555 412l33 -39l-6 -33h16q12 0 16 12l11 60h-70zM680 905h25q8 8 8 13l12 59h-10q-16 0 -22.5 -21.5t-10.5 -44.5z" />
<glyph unicode="4" horiz-adv-x="1077" d="M182 850l109 620h397l-2 -12l80 -96l-94 -526h18l113 634h397l-2 -12l80 -96l-268 -1516h-385l-78 97h-12l69 399q-84 0 -150.5 32t-113.5 85l-47 57q-70 55 -99.5 142t-11.5 192zM240 850q-12 -74 3 -138.5t55 -112.5t98.5 -75.5t131.5 -27.5h443l162 917h-283 l-111 -635h-159q-70 0 -58 72l99 563h-283zM281 850l92 522h200l-92 -522q-23 -113 90 -113h201l113 635h200l-147 -835h-401q-66 0 -118 24.5t-87 67.5t-49.5 99t-1.5 122zM602 0h283l80 461h-283zM649 41l68 379h201l-68 -379h-201z" />
<glyph unicode="5" horiz-adv-x="1052" d="M88 354l23 127h397l-2 -12l80 -96l-6 -33q6 0 10 14l22 129h-393l-80 97h-12l158 893h899l-2 -13l80 -96l-68 -387h-492q98 -4 172 -50t115 -120l47 -57q45 -55 63.5 -128t4.5 -157l-39 -213q-14 -84 -59 -158t-110 -129t-144.5 -87t-163.5 -32h-76q-86 0 -152.5 32 t-111.5 87l-45 53q-72 55 -102.5 143.5t-12.5 192.5zM145 354q-12 -74 4.5 -138t56.5 -112.5t99.5 -76t132.5 -27.5h76q74 0 142.5 27.5t125 76t96.5 113t52 137.5l37 213q12 74 -4.5 137.5t-55.5 111.5t-98 76t-133 28h-148l31 178h-283l-81 -461h430q72 0 59 -70l-37 -213 q-12 -72 -84 -71h-76q-33 0 -46 13t-14 33.5t4 46t9 48.5h-282zM186 354l4 29h199q-4 -27 -6 -52.5t5 -45t28.5 -31.5t62.5 -12h76q115 0 133 112l37 213q20 111 -92 111h-389l65 379h201l-31 -178h189q63 0 116.5 -25t88 -67t50 -99t3.5 -121l-37 -213q-12 -66 -47 -122 t-85 -99t-111.5 -67.5t-125.5 -24.5h-76q-66 0 -118 24.5t-86.5 67.5t-50 99.5t-3.5 121.5zM283 1130h784l49 285h-784zM330 1171l37 203h702l-37 -203h-702z" />
<glyph unicode="6" horiz-adv-x="1077" d="M88 354l125 707q14 86 59 160.5t112 130t146.5 88.5t165.5 33h105q104 0 182 -46.5t121 -123.5l45 -56q47 -55 65.5 -129t2.5 -160l-23 -122h-276q57 -47 92 -111l39 -47q47 -55 65.5 -128t1.5 -157l-24 -141q-14 -84 -59.5 -158t-110 -129t-143.5 -87t-163 -32h-104 q-86 0 -152.5 32t-111.5 87l-45 53q-72 55 -102.5 143.5t-12.5 192.5zM145 354q-12 -74 4.5 -138t56.5 -112.5t99.5 -76t132.5 -27.5h105q74 0 142.5 27.5t124.5 76t95 113t51 137.5l25 142q12 74 -4 137t-55 111.5t-98.5 76t-133.5 27.5h-459zM186 354l80 453h418 q63 0 116.5 -24.5t88.5 -66.5t49 -99.5t2 -120.5l-25 -142q-12 -66 -45.5 -122t-84 -99t-112 -67.5t-124.5 -24.5h-105q-66 0 -118 24.5t-86.5 67.5t-50 99.5t-3.5 121.5zM240 885h284l31 176q12 70 82 69h104q33 0 46.5 -13t14.5 -33.5t-4 -46t-10 -48.5h281l12 72 q12 74 -4 138.5t-55 112.5t-98.5 75.5t-132.5 27.5h-105q-74 0 -142.5 -27.5t-125 -75.5t-96 -112.5t-52.5 -138.5zM287 926l24 135q12 63 47 120.5t85.5 100.5t110.5 67.5t126 24.5h104q63 0 116.5 -24.5t88.5 -67.5t49.5 -100.5t1.5 -120.5l-6 -31h-198q6 27 8 51.5 t-6.5 45t-29 32.5t-60.5 12h-105q-111 0 -129 -110l-25 -135h-202zM389 354q-18 -113 90 -112h105q115 0 133 112l24 142q23 113 -92 112h-215zM430 354l37 213h174q72 0 59 -71l-24 -142q-12 -72 -84 -71h-105q-70 0 -57 71zM582 340h20q14 0 16 14l11 60h-35zM680 905h20 q14 0 27.5 -1t28.5 -3l-23 31h-12l8 45h-16q-20 0 -23 -19z" />
<glyph unicode="7" horiz-adv-x="1046" d="M152 -57q66 268 163 529t244 505h-250l-80 96h-12l70 397h899l-2 -12l80 -96l-68 -385h-45l4 -12q-100 -113 -180 -247t-144.5 -278.5t-114.5 -296t-89 -297.5h-385l-78 97h-12zM223 0h283q37 139 85 284.5t112.5 287t146.5 274.5t184 250h-332q-184 -254 -295.5 -531.5 t-183.5 -564.5zM274 41q70 262 175.5 520t271.5 494h229q-90 -111 -162.5 -236t-131 -255t-103.5 -262t-80 -261h-199zM285 1130h784l49 283h-784zM332 1171l37 201h702l-37 -201h-702z" />
<glyph unicode="8" horiz-adv-x="1085" d="M90 354l25 142q23 119 98 213q-23 59 -27 113.5t4 97.5l25 141q14 86 59 160.5t111 130t145.5 88.5t165.5 33h115q109 0 189.5 -49.5t121.5 -131.5l39 -47q45 -55 64.5 -128t3.5 -159l-25 -141q-16 -94 -100 -209q20 -47 27.5 -101t-3.5 -114l-24 -141 q-14 -84 -59.5 -158t-110 -129t-144 -87t-163.5 -32h-115q-84 0 -150.5 32t-113.5 85l-47 57q-68 55 -98.5 142.5t-12.5 191.5zM147 354q-12 -74 4.5 -138t55.5 -112.5t98.5 -76t132.5 -27.5h115q74 0 143.5 27.5t126 76t95 113t51.5 137.5l24 142q12 74 -4 137t-56 111.5 t-99.5 76t-133.5 27.5h-114q-74 0 -142.5 -27.5t-125 -76t-95.5 -112t-51 -136.5zM188 354l25 142q12 63 46 120.5t84 99.5t110.5 66.5t126.5 24.5h114q63 0 116.5 -24.5t88.5 -66.5t50.5 -99.5t2.5 -120.5l-24 -142q-12 -66 -46 -123t-84 -99t-111.5 -66.5t-127.5 -24.5 h-115q-66 0 -118 24.5t-86.5 67.5t-49 99.5t-2.5 121.5zM248 920q-18 -96 16 -181q55 55 125 92t141 48q-8 18 -2 41l25 141q12 72 84 72h115q72 0 59 -72l-25 -141q-4 -10 -7 -20.5t-11 -20.5q70 -10 126 -47t91 -93q35 41 54.5 87t29.5 94l25 141q12 74 -4.5 138.5 t-56.5 112.5t-99.5 75.5t-132.5 27.5h-115q-74 0 -142.5 -27.5t-125 -75.5t-95 -112.5t-51.5 -138.5zM283 864.5q2 28.5 6 55.5l24 141q12 63 46 120.5t84.5 100.5t110.5 67.5t126 24.5h115q66 0 118 -24.5t87.5 -66.5t50 -99.5t2.5 -122.5l-25 -141q-6 -29 -14 -55.5 t-25 -53.5q-63 70 -164 98q0 2 2 4q-2 0 0 7l25 141q18 113 -92 113h-115q-115 0 -133 -113l-27 -152q-59 -14 -106 -36.5t-94 -61.5q-4 25 -2 53.5zM387 354q-18 -113 92 -112h115q115 -1 133 112l25 142q23 113 -93 112h-114q-111 0 -133 -112zM428 354l25 142 q12 72 84 71h114q72 0 60 -71l-25 -142q-12 -72 -84 -71h-115q-72 0 -59 71zM580 340h32q14 0 17 14l10 60h-27q-18 0 -24 -21zM678 905h39q6 6 8 9.5t4 5.5l10 59h-26q-23 0 -25 -21z" />
<glyph unicode="9" horiz-adv-x="1091" d="M90 352l23 129h282q-29 18 -47 47l-47 58q-70 55 -99.5 142t-11.5 192l25 141q14 86 59 160.5t111 130t145.5 87t165.5 31.5h117q104 0 182 -46t121 -124l49 -57q43 -55 62.5 -128t3.5 -157l-125 -708q-14 -84 -59.5 -158t-110 -128t-144 -86t-163.5 -32h-117 q-86 0 -151.5 32t-110.5 87l-39 47q-72 55 -106.5 143.5t-14.5 196.5zM147 352q-12 -74 4.5 -137t55.5 -111.5t98.5 -76t132.5 -27.5h117q74 0 142.5 27.5t125 76t96 112t52.5 136.5l86 496h-471q-68 0 -56 72l25 141q12 70 82 69h117q72 0 59 -69l-33 -178h283l33 178 q12 74 -4.5 137.5t-56.5 111.5t-99 75.5t-133 27.5h-117q-74 0 -142.5 -27.5t-125 -75.5t-95 -111.5t-51.5 -137.5l-24 -141q-12 -74 3 -138.5t55 -112.5t98.5 -76t132.5 -28h188l-37 -213q-12 -70 -84 -69h-117q-33 0 -45 13t-13 34.5t4 46t9 47.5h-282zM188 352l5 31h198 q-4 -27 -6 -52.5t5 -45t27.5 -31.5t61.5 -12h117q113 0 133 110l45 254h-229q-66 0 -118 24.5t-87 67.5t-49.5 99.5t-1.5 122.5l24 141q12 63 46 120.5t84.5 99.5t110.5 66.5t126 24.5h117q63 0 116.5 -24.5t88 -66.5t50 -99.5t3.5 -120.5l-25 -137h-201l25 137 q18 111 -94 110h-117q-111 0 -129 -110l-25 -141q-23 -113 91 -113h430l-80 -455q-12 -66 -47 -122t-85 -98t-111.5 -66.5t-125.5 -24.5h-117q-66 0 -118 24.5t-86.5 66.5t-49 98.5t-2.5 121.5zM549 416l39 -43l-6 -33h32q12 0 17 12l10 60h-29q-16 0 -31.5 1t-31.5 3z M680 905h47l14 72h-28q-20 0 -23 -19z" />
<glyph unicode=":" horiz-adv-x="542" d="M14 -57l70 397h397l-2 -12l78 -97l-68 -385h-385l-77 97h-13zM82 0h283l49 283h-283zM129 41l35 201h201l-35 -201h-201zM211 1055l72 397h397l-4 -12l80 -97l-68 -385h-385l-80 97h-12zM279 1112h282l51 283h-282zM328 1153l34 201h201l-35 -201h-200z" />
<glyph unicode=";" horiz-adv-x="542" d="M-20 -246l98 563h397l-2 -12l78 -96l-55 -322l-156 -229h-270l-78 96h-12zM45 -188h188l129 188l46 260h-283zM94 -147l64 366h200l-36 -211l-107 -155h-121zM209 1055l72 397h397l-4 -12l80 -97l-68 -385h-385l-80 97h-12zM276 1112h283l51 283h-282zM326 1153l34 201 h201l-35 -201h-200z" />
<glyph unicode="?" horiz-adv-x="1116" d="M195 932l22 129q14 86 59.5 160.5t112 130t146 88.5t165.5 33h142q104 0 182 -46.5t121 -123.5l45 -56q47 -55 65.5 -129t1.5 -160l-24 -141q-12 -70 -46 -133t-82 -113.5t-108.5 -87.5t-128.5 -55l-102 -582h-385l-78 97h-12l155 893h-161l-78 96h-12zM262 989h283 q4 23 7 48.5t12 46t26.5 33.5t50.5 13h141q72 0 60 -69l-25 -141q-12 -72 -86 -72h-225l-49 -281h225q74 0 142.5 28t125 76t96 111.5t52.5 137.5l24 141q12 74 -4 138.5t-55 112.5t-98.5 75.5t-133.5 27.5h-141q-74 0 -142.5 -27.5t-124.5 -75.5t-96 -112.5t-53 -138.5z M309 1030l6 31q12 63 47 120.5t85.5 100.5t110.5 67.5t126 24.5h141q63 0 116.5 -24.5t88.5 -67.5t49.5 -100.5t1.5 -120.5l-24 -141q-12 -66 -46 -122.5t-84 -98.5t-111.5 -66.5t-125.5 -24.5h-184l35 199h184q111 0 133 113l25 141q18 111 -95 110h-141q-41 0 -66.5 -12 t-40 -32.5t-21.5 -45t-11 -51.5h-199zM358 0h283l49 283h-282zM406 41l34 201h201l-35 -201h-200zM424 379h283l28 156q-72 -8 -142.5 -6.5t-141.5 1.5zM473 420l12 69h37q23 0 45.5 -1t44.5 -1h36t38 2l-12 -69h-201zM682 905h59q16 0 19 15l10 57h-53q-16 0 -22.5 -21.5 t-10.5 -44.5z" />
<glyph unicode="A" horiz-adv-x="1097" d="M23 -57l196 1116q14 82 52 156.5t96.5 131t133 90t165.5 33.5h141q104 0 183 -48t122 -126l45 -53q45 -55 63 -129q11 -42 11 -87q0 -34 -6 -71l-197 -1110h-387l-78 97h-12l39 227h-33l-57 -324h-387l-78 97h-12zM90 0h285l55 324h244l-56 -324h285l187 1059q5 31 5 61 q1 42 -9 78q-16 64 -56.5 112t-100 75.5t-132.5 27.5h-142q-76 0 -139 -28.5t-112.5 -78t-82 -114t-45.5 -133.5l-73 -418h284q10 57 18.5 107.5t16.5 98.5t16.5 98t18.5 108q4 29 22.5 53t49.5 24h121q35 0 47 -22.5t6 -56.5l-78 -445h-528zM137 41l92 524h529l86 486 q3 17 3 33q1 32 -13 54q-20 34 -78 33h-121q-53 0 -82 -38.5t-37 -79.5l-37 -207q-6 -41 -11 -79t-15 -85h-203l67 377q10 61 39 118.5t72 100.5t99.5 68.5t121.5 25.5h142q63 0 116.5 -24.5t88.5 -67.5q34 -42 48 -100q9 -34 9 -70q0 -25 -4 -51l-181 -1018h-202l57 324 h-326l-57 -324h-203zM643 664h35l55 313h-31q-4 -2 -6 -10.5t-4 -16.5z" />
<glyph unicode="B" horiz-adv-x="1089" d="M16 -57l269 1525h528q106 0 186 -49t121 -131l39 -47q47 -55 65 -128q11 -42 11 -87q0 -34 -6 -70l-25 -141q-8 -41 -31.5 -95t-62.5 -114q18 -47 24 -101q2 -18 1 -37q0 -37 -7 -77l-24 -141q-14 -84 -59.5 -158t-110 -128t-143 -86t-162.5 -32h-523l-77 97h-13zM84 0 h471q74 0 142.5 27.5t125 76t95 112t51.5 136.5l24 142q5 34 5 65q0 39 -8 75q-15 64 -53 111.5t-98.5 75t-136.5 27.5h-188l51 282h189q59 0 59 -51q0 -9 -2 -20l-27 -141q-4 -25 -14 -41q145 -20 221 -140q29 37 49.5 87t26.5 94l27 141q5 31 5 60q1 39 -9 77 q-16 64 -56.5 112t-98.5 75.5t-132 27.5h-471l-150 -848h355q25 0 57.5 3t60 -1t45 -19.5t11.5 -51.5l-25 -142q-12 -71 -80 -71h-2h-188l43 247h-283zM131 41l78 446h201l-43 -247h229q109 0 131 112l25 142q3 17 3 31q1 25 -9 41q-14 24 -40 33t-60 9t-64 -2 q-10 0 -18.5 -1t-18.5 -1h-314l134 766h430q63 0 116.5 -24.5t88.5 -66.5q34 -41 48 -99q9 -34 10 -70q0 -25 -5 -51l-27 -141q-4 -25 -13 -52.5t-22 -54.5q-33 41 -73.5 63.5t-92.5 34.5v2v7l27 141q3 16 3 30q0 82 -93 82h-2h-230l-63 -364h229q68 0 120 -23.5t86 -65.5 t48 -100q8 -30 8 -63q0 -30 -6 -61l-24 -142q-12 -66 -46 -122t-84 -98t-111.5 -66.5t-125.5 -24.5h-430zM580 338h34q12 0 15 14l10 58h-27h-20zM678 905h43q6 8 6 13l12 59h-47z" />
<glyph unicode="C" horiz-adv-x="1028" d="M88 354l125 707q14 86 59 160.5t111 130t145.5 87t165.5 31.5h56q104 0 182 -46t121 -124l49 -57q42 -55 62 -128q10 -39 11 -81q0 -37 -8 -76l-37 -215l-385 2l-77 95l-39 -219l383 2l-2 -13l80 -96l-48 -262q-14 -84 -59 -158t-109.5 -129t-144.5 -87t-164 -32h-55 q-84 0 -150.5 32t-113.5 85l-47 57q-69 54 -99 142q-19 55 -19 117q0 36 7 75zM145 354q-5 -31 -5 -61q0 -40 10 -77q16 -64 55 -112.5t98 -76t133 -27.5h56q74 0 142 27.5t124.5 76t96.5 113t52 137.5l37 211l-282 -2l-25 -137q-4 -23 -7 -48.5t-12.5 -47t-27 -34.5 t-49.5 -13h-56q-59 0 -59 51q0 9 2 20l125 707q12 69 80 69h2h55q33 0 46.5 -13t14.5 -33.5t-4.5 -46t-9.5 -48.5l-16 -90l283 -2l28 164q5 31 5 61q0 40 -9 76q-16 64 -56 112t-99.5 75.5t-133.5 27.5h-55q-74 0 -142.5 -27.5t-125 -75.5t-95 -111.5t-51.5 -137.5zM186 354 l125 707q12 63 46 120.5t84.5 99.5t110.5 66.5t126 24.5h55q63 0 116.5 -24.5t88.5 -66.5q34 -41 50 -99q8 -31 9 -65q0 -28 -6 -56l-22 -123q-61 0 -104.5 1t-96.5 1l14 72q6 29 9.5 57.5t-3 51t-27 36.5t-65.5 14h-55q-111 0 -129 -110l-125 -707q-3 -16 -2 -30 q0 -82 90 -82h2h55q45 0 71 14t40 36.5t20.5 52.5t10.5 58l20 119q61 0 105.5 1t97.5 1l-31 -170q-12 -66 -47 -122t-85 -99t-111.5 -67.5t-124.5 -24.5h-56q-66 0 -118 24.5t-86 67.5q-36 43 -50 99q-8 31 -7 65q0 28 5 57z" />
<glyph unicode="D" d="M35 -57l268 1527h516q104 0 183 -48t122 -126l45 -53q45 -55 63 -129q11 -42 11 -87q0 -34 -6 -71l-125 -706q-14 -84 -59 -158t-109.5 -128t-144.5 -86t-164 -32h-510l-78 97h-12zM102 0h459q74 0 142.5 27.5t125 76t96.5 112t52 136.5l125 707q5 31 5 61q1 42 -9 78 q-16 64 -56.5 112t-99.5 75.5t-133 27.5h-459l-49 -283h459q61 0 61 -51q0 -9 -2 -20l-125 -707q-12 -69 -82 -69h-2h-458zM150 41l34 201h418q113 0 133 110l125 707q2 16 2 29q0 83 -94 83h-2h-418l37 201h418q63 0 116.5 -24.5t88.5 -67.5q34 -42 48 -100q9 -34 9 -70 q0 -25 -4 -51l-125 -707q-12 -66 -47 -122t-85 -98t-111.5 -66.5t-125.5 -24.5h-417zM158 317h282l138 779h-283zM205 358l123 697h200l-122 -697h-201zM598 340h23q12 0 16 12l111 625h-37z" />
<glyph unicode="E" horiz-adv-x="970" d="M25 -57l268 1527h803l-2 -12l80 -96l-68 -385h-406l-14 -72h309l-2 -12l80 -96l-67 -385h-406l-12 -72h309l-2 -12l78 -97l-68 -385h-790l-78 97h-12zM92 0h688l49 283h-405l49 282h406l49 283h-406l45 248h-282zM139 41l178 1014h201l-43 -248h406l-35 -201h-406 l-65 -364h405l-35 -201h-606zM291 1130h688l49 283h-688zM338 1171l37 201h606l-37 -201h-606z" />
<glyph unicode="F" horiz-adv-x="929" d="M16 -57l269 1527h778l-2 -12l80 -96l-68 -385h-381l-14 -72h289l-2 -12l79 -96l-67 -385h-385l-100 -566h-386l-77 97h-13zM84 0h283l98 565h385l49 283h-385l45 248h-283zM131 41l178 1014h201l-43 -248h385l-35 -201h-385l-100 -565h-201zM283 1130h663l49 283h-663z M330 1171l37 201h581l-37 -201h-581z" />
<glyph unicode="G" horiz-adv-x="1056" d="M86 354l125 707q14 86 59 160.5t112 130t146.5 88.5t165.5 33h86q104 0 183 -48.5t120 -126.5l43 -51q47 -55 66 -129q10 -42 10 -88q0 -35 -6 -72l-125 -706q-14 -84 -59 -158t-109.5 -129t-143.5 -87t-163 -32h-86q-86 0 -152.5 32t-111.5 87l-39 47q-74 55 -107 144 q-20 58 -20 123q0 37 6 75zM143 354q-5 -31 -5 -61q0 -40 10 -77q16 -64 56 -112.5t99 -76t133 -27.5h86q74 0 142.5 27.5t125 76t95.5 113t51 137.5l18 107h-280q-4 -25 -7 -55.5t-12.5 -58.5t-28 -46t-55.5 -18h-86q-61 0 -61 51q0 9 2 20l125 707q12 69 82 69h2h86 q33 0 46 -13t14 -33.5t-4 -46t-9 -48.5l-16 -84l284 2l25 154q5 31 5 61q0 40 -10 78q-16 64 -55.5 112t-98 75.5t-132.5 27.5h-86q-74 0 -142.5 -27.5t-125 -75.5t-96 -112.5t-52.5 -138.5zM184 354l125 707q12 63 47 120.5t85.5 100.5t110.5 67.5t126 24.5h86 q63 0 115.5 -24.5t87 -67.5t49.5 -100q8 -35 8 -70q0 -25 -4 -51q-4 -25 -9 -56.5t-10 -56.5q-59 0 -103 -1t-97 -1l12 66q6 29 9 57.5t-3 51t-26.5 36.5t-65.5 14h-86q-113 0 -131 -110l-125 -707q-3 -16 -3 -30q0 -82 93 -82h2h86q43 0 69.5 16t43 43t24 57.5t11.5 61.5 h196l-12 -66q-12 -66 -46 -122t-84 -99t-111.5 -67.5t-125.5 -24.5h-86q-66 0 -118 24.5t-87.5 66.5t-50.5 100q-7 31 -7 65q0 28 5 57zM489 496h472l51 282h-471zM539 537l34 200h390l-35 -200h-389zM578 340h4q4 0 6 2h-10v-2zM664 836h43l-11 12h-12l25 129 q-18 -2 -23 -19z" />
<glyph unicode="H" horiz-adv-x="1075" d="M23 -57l268 1530h397l-2 -13l80 -96l-115 -645h19l133 751h397l-2 -12l80 -96l-268 -1518h-385l-80 97h-13l52 288h-19l-67 -383h-385l-78 97h-12zM90 0h283l59 346h-282zM137 41l47 264h201l-47 -264h-201zM156 383h256t256 -2l-68 -383h283l250 1415h-283l-133 -751 l-228 2l132 751h-283zM205 424l168 950h200l-133 -751l312 -2l133 751h200l-235 -1333h-201l68 383q-119 2 -254 2h-258z" />
<glyph unicode="I" horiz-adv-x="567" d="M27 -57l268 1527h397l-2 -12l80 -96l-268 -1516h-385l-78 97h-12zM94 0h283l248 1413h-283zM141 41l236 1331h201l-236 -1331h-201z" />
<glyph unicode="J" horiz-adv-x="1046" d="M98 354l23 127h397l-2 -12l70 -86l106 594h-375l-79 96h-13l70 397h883l-2 -12l79 -96l-196 -1110q-14 -84 -59.5 -158t-110 -129t-144 -87t-163.5 -32h-60q-86 0 -152.5 32t-111.5 87l-45 53q-72 55 -103 144q-19 55 -19 117q0 36 7 75zM156 354q-5 -32 -5 -62 q0 -39 9 -76q16 -64 56 -112.5t99.5 -76t133.5 -27.5h59q74 0 142.5 27.5t124.5 76t96 113t53 137.5l131 742h-285l-131 -742q-6 -31 -20.5 -46t-34 -21t-42 -5t-44.5 1q-33 0 -46.5 13t-14.5 33.5t4 46t10 48.5h-283zM197 354l4 29h198q-4 -27 -6 -52.5t5.5 -45t29 -31.5 t61.5 -12h19q27 0 54.5 1t51 11t41 33.5t25.5 66.5l123 701h203l-123 -701q-12 -66 -47 -122t-85.5 -99t-111.5 -67.5t-125 -24.5h-59q-66 0 -118 24.5t-87 67.5t-50 99q-9 31 -9 64q0 28 6 58zM293 1130h768l49 283h-768zM340 1171l37 201h686l-37 -201h-686z" />
<glyph unicode="K" horiz-adv-x="1122" d="M23 -57l268 1527h397l-2 -12l80 -96l-4 -25l86 133h440l-8 -12l82 -96l-399 -614l118 -902h-401l-78 97h-10l-27 188l-22 -35l-45 -250h-385l-78 97h-12zM90 0h283l37 213l776 1200h-312l-348 -536l95 536h-283zM137 41l236 1331h200l-92 -514l68 -16l346 530h219 l-743 -1149l-33 -182h-201zM586 424l57 -424h295l-107 805zM629 422l174 268q12 -94 22.5 -173t20.5 -154.5t20.5 -153.5t22.5 -168h-209q-12 104 -25.5 191t-25.5 190z" />
<glyph unicode="L" horiz-adv-x="897" d="M16 -57l269 1527h399l-2 -12l80 -96l-180 -1022h256l-2 -12l77 -97l-67 -385h-740l-77 97h-13zM84 0h637l49 283h-637zM131 41l35 201h555l-35 -201h-555zM139 317h285l192 1096h-284zM186 358l181 1014h202l-180 -1014h-203z" />
<glyph unicode="M" horiz-adv-x="1257" d="M20 -57l236 1341l23 4l-11 64l21 116h381l4 -16l76 -92l49 -273l207 381h380l-2 -12l80 -96l-268 -1514h-385l-72 88l-59 -88l-129 -2l-31 138l-24 -136h-385l-78 97h-13zM88 0h283l82 473l-11 55q-10 56 -25.5 139t-32.5 181t-33.5 185t-28 149.5t-13.5 77.5zM135 41 l172 979l37 -191q12 -66 22.5 -127t19.5 -111t15.5 -85t8.5 -43l-74 -422h-201zM328 1364l252 -1364l309 578l-101 -578h283l248 1411h-283l-311 -577l-107 577h-282q0 -4 -4 -24.5t-4 -22.5zM369 1370h213l123 -659q37 70 83 153.5t93 172.5t92 175t84 158h213l-234 -1329 h-200l96 551l-72 12l-260 -483z" />
<glyph unicode="N" d="M25 -57l237 1347l21 4l-11 54l21 122h381l4 -16l76 -92l32 -168l50 276h397l-2 -12l80 -96l-269 -1516h-368l-78 97h-10l-37 163l-47 -260h-387l-78 97h-12zM92 0h285l94 541l-158 723zM139 41l176 1003q20 -90 33.5 -147t25 -109.5t24 -109.5t30.5 -146l-86 -491h-203z M330 1358l305 -1358h283l247 1413h-282l-119 -678l-139 678h-285zM373 1366l2 6h215l135 -665l78 14l115 651h200l-235 -1331h-213z" />
<glyph unicode="O" horiz-adv-x="1083" d="M96 352l125 707q14 86 59.5 160.5t111 131t146 88t167.5 31.5h96q104 0 182 -46t119 -124l47 -55q45 -55 65 -129q11 -41 10 -85q0 -36 -7 -75l-125 -706q-14 -84 -59.5 -158t-110 -128t-143.5 -86t-163 -32h-96q-86 0 -153.5 32t-112.5 87l-47 55q-69 56 -99 142 q-19 54 -19 115q0 36 7 75zM154 352q-5 -32 -5 -61q0 -40 9 -76q16 -63 56 -111.5t99.5 -76t132.5 -27.5h97q74 0 142.5 27.5t124.5 76t95 112t51 136.5l125 707q5 32 5 62q0 41 -9 77q-16 64 -56 112t-98.5 75.5t-131.5 27.5h-97q-74 0 -143.5 -27.5t-125.5 -75.5 t-95 -112.5t-51 -138.5zM195 352l124 707q12 66 46 123t84.5 99t112 66.5t126.5 24.5h96q63 0 115.5 -24.5t87.5 -67.5q35 -42 49 -100q8 -33 8 -68q0 -26 -4 -53l-125 -707q-12 -66 -45.5 -122t-84 -98t-112 -66.5t-124.5 -24.5h-96q-66 0 -118 24.5t-87 66.5 q-34 42 -50 98q-8 31 -9 64q0 28 6 58zM395 352q-3 -17 -3 -31q0 -79 93 -79h2h97h2q111 0 131 110l125 707q2 16 2 29q0 83 -94 83h-2h-97q-113 0 -131 -112zM436 352l125 707q12 71 82 71h2h96q62 0 62 -52q0 -9 -2 -19l-125 -707q-12 -69 -82 -69h-2h-96q-62 0 -62 51 q0 8 2 18zM588 340h14q12 0 16 12l111 625h-8q-23 0 -25 -21z" />
<glyph unicode="P" horiz-adv-x="1046" d="M27 -57l268 1525h477q106 0 186 -49t121 -131l29 -37l10 -10q48 -55 66 -128q11 -42 10 -87q0 -34 -6 -70l-37 -211q-16 -84 -60 -157.5t-108.5 -129t-143.5 -87t-163 -31.5h-86l-88 -494h-385l-78 97h-12zM94 0h283l80 459h-283zM141 41l66 377h201l-66 -377h-201z M180 494h420q74 0 142.5 27.5t125 75.5t95 112.5t51.5 138.5l39 211q5 31 5 60q0 39 -10 77q-16 64 -56 112t-98 75.5t-132 27.5h-420zM229 535l146 835h379q63 0 116.5 -24.5t87.5 -66.5q36 -41 50 -99q9 -34 9 -70q0 -25 -5 -51l-39 -211q-10 -66 -45 -122t-84 -99 t-110.5 -67.5t-125.5 -24.5h-379zM465 735h178q111 0 129 113l39 211q3 16 3 30q0 82 -93 82h-2h-178zM512 776l63 354h138q59 0 59 -51q0 -9 -2 -20l-39 -211q-12 -72 -82 -72h-137z" />
<glyph unicode="Q" horiz-adv-x="1116" d="M90 354l125 707q14 86 59 160.5t111 130t145.5 88.5t165.5 33h142q104 0 183 -48.5t122 -126.5l45 -53q45 -55 64 -129q11 -40 11 -82q0 -37 -8 -76l-125 -706q-12 -68 -43.5 -129.5t-77.5 -111.5t-105.5 -88t-123.5 -56l-43 -242h-385l-78 96h-12l33 197 q-12 10 -24.5 21.5t-22.5 23.5l-41 51q-72 55 -103 144q-21 57 -21 121q0 36 7 75zM147 354q-5 -31 -5 -61q0 -40 10 -77q16 -64 55 -112.5t98.5 -76t132.5 -27.5h142q74 0 142.5 27.5t124.5 76t96 113t52 137.5l125 707q5 32 5 62q0 40 -9 77q-16 64 -56 112t-99.5 75.5 t-133.5 27.5h-141q-74 0 -142.5 -27.5t-125 -75.5t-95 -112.5t-51.5 -138.5zM188 354l125 707q12 63 46 120.5t84.5 100.5t110.5 67.5t126 24.5h141q63 0 116.5 -24.5t88.5 -67.5t50 -100q9 -32 9 -65q0 -27 -6 -56l-125 -707q-12 -66 -47 -122t-85 -99t-111.5 -67.5 t-124.5 -24.5h-142q-66 0 -118 24.5t-86.5 67.5t-49.5 99q-7 31 -7 65q0 28 5 57zM328 -221h282l35 192q-37 -6 -72 -6h-141q-37 0 -70 6zM377 -180l18 104h170q10 0 15.5 -1t15.5 1l-18 -104h-201zM389 354q-3 -17 -3 -32q0 -78 91 -78h2h142h2q111 0 131 110l125 707 q3 16 3 29q0 84 -96 84h-141q-113 0 -131 -113zM430 354l125 707q12 72 82 72h141q62 0 62 -53q0 -9 -2 -19l-125 -707q-12 -69 -82 -69h-2h-142q-59 0 -59 49q0 9 2 20zM582 342h57q12 0 16 12l111 625h-53q-20 0 -23 -21z" />
<glyph unicode="R" horiz-adv-x="1075" d="M20 -57l269 1527h502q106 0 187 -49t122 -131l39 -47q45 -55 65 -128q10 -39 10 -81q0 -37 -8 -76l-37 -213q-20 -111 -87.5 -200.5t-163.5 -143.5l114 -555h-420l-77 97h-11l-6 30l-22 -127h-385l-78 97h-13zM88 0h283l86 494h161q74 0 142.5 27.5t125 75.5t95.5 112.5 t51 138.5l39 213q5 31 5 61q0 40 -9 76q-16 64 -55 112t-98.5 75.5t-133.5 27.5h-444l-105 -600h283l55 317h162q59 0 59 -49q0 -9 -2 -20l-38 -213q-10 -70 -80 -70h-445zM135 41l123 696h404q111 0 129 111l38 213q3 16 3 29q0 81 -93 81h-2h-202l-56 -317h-200l92 518 h403q63 0 116.5 -24.5t88.5 -66.5q35 -41 49 -99q8 -31 8 -64q0 -28 -6 -57l-39 -213q-10 -66 -45 -122t-84 -99t-110.5 -67.5t-124.5 -24.5h-203l-88 -494h-201zM500 459l75 -459h310l-103 487q-73 -29 -139 -29h-3q-68 0 -140 1zM549 418q31 -1 64 -1h33q50 1 104 17 l81 -393h-221zM670 836h8q14 0 14 12l25 129h-21z" />
<glyph unicode="S" horiz-adv-x="1079" d="M90 354l35 199h205l-23 27q-71 55 -103 144q-20 57 -21 121q0 37 7 75l25 141q14 86 59 160.5t112 130t146.5 88.5t165.5 33h103q104 0 183 -48.5t122 -126.5l45 -53q45 -55 65 -129q11 -41 10 -84q0 -36 -7 -74l-23 -122h-278q29 -20 50 -46t38 -55l47 -57 q45 -55 63 -128q10 -38 10 -79q0 -38 -8 -78l-24 -141q-14 -84 -59.5 -158t-110 -129t-144.5 -87t-164 -32h-102q-86 0 -152.5 32t-111.5 87l-45 53q-73 56 -103 144q-19 56 -19 117q0 36 7 75zM147 354q-5 -31 -5 -61q0 -40 10 -77q16 -64 56 -112.5t99.5 -76t132.5 -27.5 h103q74 0 142.5 27.5t124.5 76t96 113t52 137.5l25 142q5 32 5 61q0 40 -9 76q-16 63 -56 111.5t-99.5 76t-133.5 27.5h-102q-58 0 -58 52q0 9 2 20l25 141q12 72 82 72h102q33 0 46.5 -13.5t14.5 -35t-4 -47t-10 -48.5h283l12 72q5 32 5 62q0 41 -9 77q-16 64 -56 112 t-99.5 75.5t-132.5 27.5h-103q-74 0 -142.5 -27.5t-124.5 -75.5t-96 -112.5t-53 -138.5l-24 -141q-5 -32 -6 -62q0 -40 10 -76q16 -64 55 -112.5t98.5 -76.5t133.5 -28h102q61 0 61 -50q0 -9 -2 -19l-24 -142q-12 -69 -82 -69h-2h-103q-59 0 -59 49q0 9 2 20l25 142h-285z M188 354l19 101h203l-19 -101q-3 -17 -3 -32q0 -79 91 -78h2h103q113 0 133 110l24 142q3 17 3 31q0 79 -93 79h-2h-102q-66 0 -118 24.5t-87 67.5q-34 44 -50 100q-8 31 -9 64q0 28 6 58l24 141q12 63 47 120.5t85.5 100.5t110.5 67.5t126 24.5h102q63 0 116.5 -24.5 t88.5 -67.5q35 -42 51 -100q8 -31 8 -65q0 -28 -6 -56l-6 -31h-200q6 27 8 52.5t-5.5 46t-27.5 33t-61 12.5h-103q-113 0 -131 -113l-24 -141q-4 -19 -4 -35q0 -78 94 -78h102q63 0 116.5 -24.5t88.5 -66.5t50 -100q8 -32 8 -65q0 -27 -5 -55l-24 -142q-12 -66 -47 -122 t-85.5 -99t-112 -67.5t-124.5 -24.5h-103q-66 0 -118 24.5t-86 67.5t-50 99q-9 32 -9 67q0 27 5 55zM584 342h18q12 0 16 12l11 58h-33zM682 905h18q14 0 27.5 -1t28.5 -3l-23 31h-12l8 47h-14q-20 0 -23 -21z" />
<glyph unicode="T" horiz-adv-x="989" d="M205 1073l69 395h863l-2 -12l79 -96l-67 -383h-234l-200 -1131h-387l-78 97h-12l182 1034h-121l-80 96h-12zM272 1130h748l49 281h-747zM303 0h285l192 1094h-284zM319 1171l35 199h666l-35 -199h-666zM350 41l178 1012h203l-178 -1012h-203z" />
<glyph unicode="U" horiz-adv-x="1064" d="M90 354l197 1116h399l-2 -12l80 -96l-180 -1022h2q14 0 16 14l197 1116h395l-2 -12l80 -96l-197 -1110q-14 -84 -59 -158t-109.5 -129t-143.5 -87t-163 -32h-86q-86 0 -152.5 32t-111.5 87l-45 53q-73 56 -103 144q-19 56 -19 117q0 36 7 75zM147 354q-5 -31 -5 -61 q0 -40 10 -77q16 -64 56 -112.5t99.5 -76t132.5 -27.5h86q74 0 142.5 27.5t125 76t95.5 113t51 137.5l186 1059h-280l-187 -1059q-12 -71 -82 -71h-2h-86q-59 0 -59 51q0 9 2 20l186 1059h-284zM188 354l181 1018h202l-180 -1018q-3 -16 -2 -30q0 -82 90 -82h2h86 q115 0 133 112l181 1018h198l-180 -1018q-12 -66 -46 -122t-84 -99t-111.5 -67.5t-125.5 -24.5h-86q-66 0 -118 24.5t-86 67.5t-50 99q-9 32 -9 67q0 27 5 55z" />
<glyph unicode="V" horiz-adv-x="1116" d="M166 410q-9 88 -9 177q0 162 29 331l99 552h340l45 -55v-8l78 -96q-10 -66 -21.5 -127.5t-24.5 -116.5q-10 -49 -17 -94t-15 -88q-18 -97 -28 -183q-8 -71 -7 -141v-29q45 96 72.5 190.5t44.5 195.5l98 552h397l-2 -12l80 -96l-111 -619q-41 -199 -132 -401.5 t-251 -400.5l5 -4l-29 -29l-23 -27l-2 2l-37 -37h-333l-78 97h-8q-135 221 -160 467zM215 672q-2 -40 -2 -80q0 -80 8 -158q12 -117 47 -225.5t97 -208.5h284l37 41q-74 127 -115 235q-41 106 -58 206q-14 85 -14 169v29q3 98 18 207.5t41 237.5t54 288h-280l-88 -495 q-23 -125 -29 -246zM256 681q8 116 29 237l82 454h198l-19 -104.5t-18 -93.5q-10 -49 -19 -96.5t-17 -90.5q-23 -131 -31 -243q-3 -43 -3 -86q0 -70 8 -138q13 -110 53 -226t116 -253h-244q-57 96 -89 199.5t-43 213.5q-6 64 -6 130q0 48 3 97zM588 336q4 -20 20.5 -56 t36 -76t38.5 -76t32 -56q147 174 234 371.5t128 404.5h2l101 565h-283l-88 -495q-27 -156 -78 -298.5t-143 -283.5zM633 334q90 141 140 285.5t77 298.5l82 454h201l-93 -522q-41 -186 -116.5 -365.5t-198.5 -339.5q-12 20 -26.5 46t-27 51.5t-22.5 49t-16 42.5z" />
<glyph unicode="W" horiz-adv-x="1685" d="M160 660q6 128 28 258l99 552h397l-2 -12l80 -96l-96 -547q-14 -80 -21.5 -148.5t-7.5 -131.5q43 96 71.5 190t45.5 193l98 552h397l-2 -12l80 -96l-96 -547q-13 -79 -21 -147q-6 -53 -6 -104v-27q41 92 70 186t45 195l98 552h398l-3 -12l80 -96l-96 -547 q-23 -125 -59.5 -245.5t-95 -240.5t-139.5 -240t-189 -243h-330l-78 97h-8l-27 41q-10 -10 -16 -23l-18 -22l2 -2l-23 -21l-27 -35l-2 4l-38 -39h-332l-78 97h-8q-70 111 -109 227q-39 118 -53 240q-10 86 -10 174q0 38 2 76zM217 671q-2 -40 -2 -79q1 -81 9 -159 q12 -116 46.5 -224.5t98.5 -208.5h282l37 41q-66 117 -108 213t-62 196q-18 87 -17 182v28q3 112 27 258l88 495h-282l-88 -495q-23 -125 -29 -247zM259 683q7 116 28 235l82 454h200l-82 -454q-25 -145 -27 -258q0 -13 -1 -26q-1 -100 17 -188q20 -100 59.5 -197 t101.5 -208h-242q-57 96 -89 200.5t-43 214.5q-7 68 -7 138q0 44 3 89zM588 336q29 -70 59.5 -135.5t69.5 -128.5q29 37 58.5 73.5t53.5 77.5q20 -59 45 -115.5t60 -107.5h283l38 41q-66 115 -108.5 212t-62.5 197q-18 87 -18 182v28q3 112 28 258l88 495h-283l-88 -495 q-27 -154 -78 -299.5t-145 -282.5zM635 336q92 139 141 283.5t76 298.5l82 454h201l-82 -454q-25 -143 -27 -256v-22q0 -100 16 -192q18 -102 59.5 -199t102.5 -208h-246q-29 47 -58.5 122t-59.5 159q-47 -84 -73 -121t-42 -60q-27 47 -48.5 96.5t-41.5 98.5zM1155 336 q16 -66 55 -136.5t72 -127.5q164 193 251 405.5t126 440.5l88 495h-283l-88 -495q-27 -154 -78 -297.5t-143 -284.5zM1200 334q92 141 141 285.5t76 298.5l82 454h201l-82 -454q-35 -207 -111.5 -401.5t-216.5 -373.5q-25 43 -50.5 92.5t-39.5 98.5z" />
<glyph unicode="X" horiz-adv-x="1064" d="M-23 -57l426 762q-18 86 -38.5 184t-42 198.5t-42 198.5t-36.5 184h426l4 -16l76 -92l4 -33l80 141h426l-7 -12l80 -96l-426 -758l158 -758h-414l-88 97l-8 37q-41 -66 -74 -134h-411l-76 97h-17zM70 0h303l174 313l65 -313h306l-297 1413h-304l146 -706zM135 41l373 666 q-35 166 -68.5 332.5t-68.5 332.5h215q70 -340 139.5 -666.5t138.5 -664.5h-217l-78 391l-219 -391h-215zM713 1149l84 -393l368 657h-303zM756 1149q35 61 64.5 112.5t64.5 110.5h215l-283 -500q-10 47 -17 80t-13.5 61.5t-14.5 59.5t-16 76z" />
<glyph unicode="Y" horiz-adv-x="1101" d="M145 707l88 495l52 271h395l-2 -13l80 -96l-119 -670h57q10 0 15.5 16.5t9.5 39.5l127 723h395l-2 -13l80 -96l-133 -760q-12 -70 -44 -131t-78 -111.5t-104.5 -87t-123.5 -55.5l-66 -373h-385l-78 97h-12l55 323q-29 23 -51 51l-43 52q-72 53 -102 140q-18 54 -18 117 q0 39 7 81zM203 707q-5 -34 -5 -65q0 -40 8 -76q15 -64 54 -111t99.5 -74t136.5 -27h141q74 0 143.5 27t125 75t94 112.5t51.5 138.5l125 708h-281l-111 -637q-4 -25 -8 -49t-13 -44.5t-26.5 -34t-50.5 -13.5h-141q-60 0 -60 51q0 9 2 19l125 708h-282q0 -2 -6.5 -34.5 t-13.5 -70.5t-13 -71t-6 -37zM244 707l118 667h203l-119 -667q-3 -15 -3 -29q0 -82 96 -82h141q45 0 70.5 13.5t40 36t19.5 50t9 58.5l111 620h198l-118 -667q-12 -66 -45 -123.5t-82 -99.5t-110.5 -65.5t-127.5 -23.5h-141q-68 0 -121 23.5t-88 65.5t-49 98q-8 30 -8 63 q0 30 6 62zM365 0h282l55 324q-70 -6 -141 -6l-141 6zM412 41l41 238q35 -4 50 -3.5t50 0.5h50.5t49.5 3l-41 -238h-200z" />
<glyph unicode="Z" d="M-10 -57l579 1036h-264l-80 96h-12l70 398h989l-6 -13l80 -96l-574 -1022h275l-3 -12l80 -97l-69 -387h-973l-78 97h-14zM82 0h303l793 1415h-304zM147 41q98 174 190.5 339t184.5 327.5t185.5 327.5t189.5 339h215q-98 -174 -190.5 -339t-184.5 -327.5t-185 -327.5 t-190 -339h-215zM281 1133h397l160 282h-508zM330 1174l35 200h405l-113 -200h-327zM422 0h508l49 285h-399zM487 41q33 63 58.5 105t56.5 98h328l-35 -203h-408z" />
<glyph unicode="a" horiz-adv-x="1097" d="M23 -57l196 1116q14 82 52 156.5t96.5 131t133 90t165.5 33.5h141q104 0 183 -48t122 -126l45 -53q45 -55 63 -129q11 -42 11 -87q0 -34 -6 -71l-197 -1110h-387l-78 97h-12l39 227h-33l-57 -324h-387l-78 97h-12zM90 0h285l55 324h244l-56 -324h285l187 1059q5 31 5 61 q1 42 -9 78q-16 64 -56.5 112t-100 75.5t-132.5 27.5h-142q-76 0 -139 -28.5t-112.5 -78t-82 -114t-45.5 -133.5l-73 -418h284q10 57 18.5 107.5t16.5 98.5t16.5 98t18.5 108q4 29 22.5 53t49.5 24h121q35 0 47 -22.5t6 -56.5l-78 -445h-528zM137 41l92 524h529l86 486 q3 17 3 33q1 32 -13 54q-20 34 -78 33h-121q-53 0 -82 -38.5t-37 -79.5l-37 -207q-6 -41 -11 -79t-15 -85h-203l67 377q10 61 39 118.5t72 100.5t99.5 68.5t121.5 25.5h142q63 0 116.5 -24.5t88.5 -67.5q34 -42 48 -100q9 -34 9 -70q0 -25 -4 -51l-181 -1018h-202l57 324 h-326l-57 -324h-203zM643 664h35l55 313h-31q-4 -2 -6 -10.5t-4 -16.5z" />
<glyph unicode="b" horiz-adv-x="1089" d="M16 -57l269 1525h528q106 0 186 -49t121 -131l39 -47q47 -55 65 -128q11 -42 11 -87q0 -34 -6 -70l-25 -141q-8 -41 -31.5 -95t-62.5 -114q18 -47 24 -101q2 -18 1 -37q0 -37 -7 -77l-24 -141q-14 -84 -59.5 -158t-110 -128t-143 -86t-162.5 -32h-523l-77 97h-13zM84 0 h471q74 0 142.5 27.5t125 76t95 112t51.5 136.5l24 142q5 34 5 65q0 39 -8 75q-15 64 -53 111.5t-98.5 75t-136.5 27.5h-188l51 282h189q59 0 59 -51q0 -9 -2 -20l-27 -141q-4 -25 -14 -41q145 -20 221 -140q29 37 49.5 87t26.5 94l27 141q5 31 5 60q1 39 -9 77 q-16 64 -56.5 112t-98.5 75.5t-132 27.5h-471l-150 -848h355q25 0 57.5 3t60 -1t45 -19.5t11.5 -51.5l-25 -142q-12 -71 -80 -71h-2h-188l43 247h-283zM131 41l78 446h201l-43 -247h229q109 0 131 112l25 142q3 17 3 31q1 25 -9 41q-14 24 -40 33t-60 9t-64 -2 q-10 0 -18.5 -1t-18.5 -1h-314l134 766h430q63 0 116.5 -24.5t88.5 -66.5q34 -41 48 -99q9 -34 10 -70q0 -25 -5 -51l-27 -141q-4 -25 -13 -52.5t-22 -54.5q-33 41 -73.5 63.5t-92.5 34.5v2v7l27 141q3 16 3 30q0 82 -93 82h-2h-230l-63 -364h229q68 0 120 -23.5t86 -65.5 t48 -100q8 -30 8 -63q0 -30 -6 -61l-24 -142q-12 -66 -46 -122t-84 -98t-111.5 -66.5t-125.5 -24.5h-430zM580 338h34q12 0 15 14l10 58h-27h-20zM678 905h43q6 8 6 13l12 59h-47z" />
<glyph unicode="c" horiz-adv-x="1028" d="M88 354l125 707q14 86 59 160.5t111 130t145.5 87t165.5 31.5h56q104 0 182 -46t121 -124l49 -57q42 -55 62 -128q10 -39 11 -81q0 -37 -8 -76l-37 -215l-385 2l-77 95l-39 -219l383 2l-2 -13l80 -96l-48 -262q-14 -84 -59 -158t-109.5 -129t-144.5 -87t-164 -32h-55 q-84 0 -150.5 32t-113.5 85l-47 57q-69 54 -99 142q-19 55 -19 117q0 36 7 75zM145 354q-5 -31 -5 -61q0 -40 10 -77q16 -64 55 -112.5t98 -76t133 -27.5h56q74 0 142 27.5t124.5 76t96.5 113t52 137.5l37 211l-282 -2l-25 -137q-4 -23 -7 -48.5t-12.5 -47t-27 -34.5 t-49.5 -13h-56q-59 0 -59 51q0 9 2 20l125 707q12 69 80 69h2h55q33 0 46.5 -13t14.5 -33.5t-4.5 -46t-9.5 -48.5l-16 -90l283 -2l28 164q5 31 5 61q0 40 -9 76q-16 64 -56 112t-99.5 75.5t-133.5 27.5h-55q-74 0 -142.5 -27.5t-125 -75.5t-95 -111.5t-51.5 -137.5zM186 354 l125 707q12 63 46 120.5t84.5 99.5t110.5 66.5t126 24.5h55q63 0 116.5 -24.5t88.5 -66.5q34 -41 50 -99q8 -31 9 -65q0 -28 -6 -56l-22 -123q-61 0 -104.5 1t-96.5 1l14 72q6 29 9.5 57.5t-3 51t-27 36.5t-65.5 14h-55q-111 0 -129 -110l-125 -707q-3 -16 -2 -30 q0 -82 90 -82h2h55q45 0 71 14t40 36.5t20.5 52.5t10.5 58l20 119q61 0 105.5 1t97.5 1l-31 -170q-12 -66 -47 -122t-85 -99t-111.5 -67.5t-124.5 -24.5h-56q-66 0 -118 24.5t-86 67.5q-36 43 -50 99q-8 31 -7 65q0 28 5 57z" />
<glyph unicode="d" d="M35 -57l268 1527h516q104 0 183 -48t122 -126l45 -53q45 -55 63 -129q11 -42 11 -87q0 -34 -6 -71l-125 -706q-14 -84 -59 -158t-109.5 -128t-144.5 -86t-164 -32h-510l-78 97h-12zM102 0h459q74 0 142.5 27.5t125 76t96.5 112t52 136.5l125 707q5 31 5 61q1 42 -9 78 q-16 64 -56.5 112t-99.5 75.5t-133 27.5h-459l-49 -283h459q61 0 61 -51q0 -9 -2 -20l-125 -707q-12 -69 -82 -69h-2h-458zM150 41l34 201h418q113 0 133 110l125 707q2 16 2 29q0 83 -94 83h-2h-418l37 201h418q63 0 116.5 -24.5t88.5 -67.5q34 -42 48 -100q9 -34 9 -70 q0 -25 -4 -51l-125 -707q-12 -66 -47 -122t-85 -98t-111.5 -66.5t-125.5 -24.5h-417zM158 317h282l138 779h-283zM205 358l123 697h200l-122 -697h-201zM598 340h23q12 0 16 12l111 625h-37z" />
<glyph unicode="e" horiz-adv-x="970" d="M25 -57l268 1527h803l-2 -12l80 -96l-68 -385h-406l-14 -72h309l-2 -12l80 -96l-67 -385h-406l-12 -72h309l-2 -12l78 -97l-68 -385h-790l-78 97h-12zM92 0h688l49 283h-405l49 282h406l49 283h-406l45 248h-282zM139 41l178 1014h201l-43 -248h406l-35 -201h-406 l-65 -364h405l-35 -201h-606zM291 1130h688l49 283h-688zM338 1171l37 201h606l-37 -201h-606z" />
<glyph unicode="f" horiz-adv-x="929" d="M16 -57l269 1527h778l-2 -12l80 -96l-68 -385h-381l-14 -72h289l-2 -12l79 -96l-67 -385h-385l-100 -566h-386l-77 97h-13zM84 0h283l98 565h385l49 283h-385l45 248h-283zM131 41l178 1014h201l-43 -248h385l-35 -201h-385l-100 -565h-201zM283 1130h663l49 283h-663z M330 1171l37 201h581l-37 -201h-581z" />
<glyph unicode="g" horiz-adv-x="1056" d="M86 354l125 707q14 86 59 160.5t112 130t146.5 88.5t165.5 33h86q104 0 183 -48.5t120 -126.5l43 -51q47 -55 66 -129q10 -42 10 -88q0 -35 -6 -72l-125 -706q-14 -84 -59 -158t-109.5 -129t-143.5 -87t-163 -32h-86q-86 0 -152.5 32t-111.5 87l-39 47q-74 55 -107 144 q-20 58 -20 123q0 37 6 75zM143 354q-5 -31 -5 -61q0 -40 10 -77q16 -64 56 -112.5t99 -76t133 -27.5h86q74 0 142.5 27.5t125 76t95.5 113t51 137.5l18 107h-280q-4 -25 -7 -55.5t-12.5 -58.5t-28 -46t-55.5 -18h-86q-61 0 -61 51q0 9 2 20l125 707q12 69 82 69h2h86 q33 0 46 -13t14 -33.5t-4 -46t-9 -48.5l-16 -84l284 2l25 154q5 31 5 61q0 40 -10 78q-16 64 -55.5 112t-98 75.5t-132.5 27.5h-86q-74 0 -142.5 -27.5t-125 -75.5t-96 -112.5t-52.5 -138.5zM184 354l125 707q12 63 47 120.5t85.5 100.5t110.5 67.5t126 24.5h86 q63 0 115.5 -24.5t87 -67.5t49.5 -100q8 -35 8 -70q0 -25 -4 -51q-4 -25 -9 -56.5t-10 -56.5q-59 0 -103 -1t-97 -1l12 66q6 29 9 57.5t-3 51t-26.5 36.5t-65.5 14h-86q-113 0 -131 -110l-125 -707q-3 -16 -3 -30q0 -82 93 -82h2h86q43 0 69.5 16t43 43t24 57.5t11.5 61.5 h196l-12 -66q-12 -66 -46 -122t-84 -99t-111.5 -67.5t-125.5 -24.5h-86q-66 0 -118 24.5t-87.5 66.5t-50.5 100q-7 31 -7 65q0 28 5 57zM489 496h472l51 282h-471zM539 537l34 200h390l-35 -200h-389zM578 340h4q4 0 6 2h-10v-2zM664 836h43l-11 12h-12l25 129 q-18 -2 -23 -19z" />
<glyph unicode="h" horiz-adv-x="1075" d="M23 -57l268 1530h397l-2 -13l80 -96l-115 -645h19l133 751h397l-2 -12l80 -96l-268 -1518h-385l-80 97h-13l52 288h-19l-67 -383h-385l-78 97h-12zM90 0h283l59 346h-282zM137 41l47 264h201l-47 -264h-201zM156 383h256t256 -2l-68 -383h283l250 1415h-283l-133 -751 l-228 2l132 751h-283zM205 424l168 950h200l-133 -751l312 -2l133 751h200l-235 -1333h-201l68 383q-119 2 -254 2h-258z" />
<glyph unicode="i" horiz-adv-x="567" d="M27 -57l268 1527h397l-2 -12l80 -96l-268 -1516h-385l-78 97h-12zM94 0h283l248 1413h-283zM141 41l236 1331h201l-236 -1331h-201z" />
<glyph unicode="j" horiz-adv-x="1046" d="M98 354l23 127h397l-2 -12l70 -86l106 594h-375l-79 96h-13l70 397h883l-2 -12l79 -96l-196 -1110q-14 -84 -59.5 -158t-110 -129t-144 -87t-163.5 -32h-60q-86 0 -152.5 32t-111.5 87l-45 53q-72 55 -103 144q-19 55 -19 117q0 36 7 75zM156 354q-5 -32 -5 -62 q0 -39 9 -76q16 -64 56 -112.5t99.5 -76t133.5 -27.5h59q74 0 142.5 27.5t124.5 76t96 113t53 137.5l131 742h-285l-131 -742q-6 -31 -20.5 -46t-34 -21t-42 -5t-44.5 1q-33 0 -46.5 13t-14.5 33.5t4 46t10 48.5h-283zM197 354l4 29h198q-4 -27 -6 -52.5t5.5 -45t29 -31.5 t61.5 -12h19q27 0 54.5 1t51 11t41 33.5t25.5 66.5l123 701h203l-123 -701q-12 -66 -47 -122t-85.5 -99t-111.5 -67.5t-125 -24.5h-59q-66 0 -118 24.5t-87 67.5t-50 99q-9 31 -9 64q0 28 6 58zM293 1130h768l49 283h-768zM340 1171l37 201h686l-37 -201h-686z" />
<glyph unicode="k" horiz-adv-x="1122" d="M23 -57l268 1527h397l-2 -12l80 -96l-4 -25l86 133h440l-8 -12l82 -96l-399 -614l118 -902h-401l-78 97h-10l-27 188l-22 -35l-45 -250h-385l-78 97h-12zM90 0h283l37 213l776 1200h-312l-348 -536l95 536h-283zM137 41l236 1331h200l-92 -514l68 -16l346 530h219 l-743 -1149l-33 -182h-201zM586 424l57 -424h295l-107 805zM629 422l174 268q12 -94 22.5 -173t20.5 -154.5t20.5 -153.5t22.5 -168h-209q-12 104 -25.5 191t-25.5 190z" />
<glyph unicode="l" horiz-adv-x="897" d="M16 -57l269 1527h399l-2 -12l80 -96l-180 -1022h256l-2 -12l77 -97l-67 -385h-740l-77 97h-13zM84 0h637l49 283h-637zM131 41l35 201h555l-35 -201h-555zM139 317h285l192 1096h-284zM186 358l181 1014h202l-180 -1014h-203z" />
<glyph unicode="m" horiz-adv-x="1257" d="M20 -57l236 1341l23 4l-11 64l21 116h381l4 -16l76 -92l49 -273l207 381h380l-2 -12l80 -96l-268 -1514h-385l-72 88l-59 -88l-129 -2l-31 138l-24 -136h-385l-78 97h-13zM88 0h283l82 473l-11 55q-10 56 -25.5 139t-32.5 181t-33.5 185t-28 149.5t-13.5 77.5zM135 41 l172 979l37 -191q12 -66 22.5 -127t19.5 -111t15.5 -85t8.5 -43l-74 -422h-201zM328 1364l252 -1364l309 578l-101 -578h283l248 1411h-283l-311 -577l-107 577h-282q0 -4 -4 -24.5t-4 -22.5zM369 1370h213l123 -659q37 70 83 153.5t93 172.5t92 175t84 158h213l-234 -1329 h-200l96 551l-72 12l-260 -483z" />
<glyph unicode="n" d="M25 -57l237 1347l21 4l-11 54l21 122h381l4 -16l76 -92l32 -168l50 276h397l-2 -12l80 -96l-269 -1516h-368l-78 97h-10l-37 163l-47 -260h-387l-78 97h-12zM92 0h285l94 541l-158 723zM139 41l176 1003q20 -90 33.5 -147t25 -109.5t24 -109.5t30.5 -146l-86 -491h-203z M330 1358l305 -1358h283l247 1413h-282l-119 -678l-139 678h-285zM373 1366l2 6h215l135 -665l78 14l115 651h200l-235 -1331h-213z" />
<glyph unicode="o" horiz-adv-x="1083" d="M96 352l125 707q14 86 59.5 160.5t111 131t146 88t167.5 31.5h96q104 0 182 -46t119 -124l47 -55q45 -55 65 -129q11 -41 10 -85q0 -36 -7 -75l-125 -706q-14 -84 -59.5 -158t-110 -128t-143.5 -86t-163 -32h-96q-86 0 -153.5 32t-112.5 87l-47 55q-69 56 -99 142 q-19 54 -19 115q0 36 7 75zM154 352q-5 -32 -5 -61q0 -40 9 -76q16 -63 56 -111.5t99.5 -76t132.5 -27.5h97q74 0 142.5 27.5t124.5 76t95 112t51 136.5l125 707q5 32 5 62q0 41 -9 77q-16 64 -56 112t-98.5 75.5t-131.5 27.5h-97q-74 0 -143.5 -27.5t-125.5 -75.5 t-95 -112.5t-51 -138.5zM195 352l124 707q12 66 46 123t84.5 99t112 66.5t126.5 24.5h96q63 0 115.5 -24.5t87.5 -67.5q35 -42 49 -100q8 -33 8 -68q0 -26 -4 -53l-125 -707q-12 -66 -45.5 -122t-84 -98t-112 -66.5t-124.5 -24.5h-96q-66 0 -118 24.5t-87 66.5 q-34 42 -50 98q-8 31 -9 64q0 28 6 58zM395 352q-3 -17 -3 -31q0 -79 93 -79h2h97h2q111 0 131 110l125 707q2 16 2 29q0 83 -94 83h-2h-97q-113 0 -131 -112zM436 352l125 707q12 71 82 71h2h96q62 0 62 -52q0 -9 -2 -19l-125 -707q-12 -69 -82 -69h-2h-96q-62 0 -62 51 q0 8 2 18zM588 340h14q12 0 16 12l111 625h-8q-23 0 -25 -21z" />
<glyph unicode="p" horiz-adv-x="1046" d="M27 -57l268 1525h477q106 0 186 -49t121 -131l29 -37l10 -10q47 -55 66 -128q10 -42 10 -87q0 -34 -6 -70l-37 -211q-16 -84 -60 -157.5t-108.5 -129t-143.5 -87t-163 -31.5h-86l-88 -494h-385l-78 97h-12zM94 0h283l80 459h-283zM141 41l66 377h201l-66 -377h-201z M180 494h420q74 0 142.5 27.5t125 75.5t95 112.5t51.5 138.5l39 211q5 31 5 60q0 41 -10 77q-16 64 -56 112t-98 75.5t-132 27.5h-420zM229 535l146 835h379q63 0 116.5 -24.5t88 -66.5t49.5 -99q8 -35 8 -70q0 -25 -4 -51l-39 -211q-10 -66 -45 -122t-84 -99t-110.5 -67.5 t-125.5 -24.5h-379zM465 735h178q111 0 129 113l39 211q3 16 3 30q0 82 -93 82h-2h-178zM512 776l63 354h138q59 0 59 -51q0 -9 -2 -20l-39 -211q-12 -72 -82 -72h-137z" />
<glyph unicode="q" horiz-adv-x="1116" d="M90 354l125 707q14 86 59 160.5t111 130t145.5 88.5t165.5 33h142q104 0 183 -48.5t122 -126.5l45 -53q45 -55 64 -129q11 -40 11 -82q0 -37 -8 -76l-125 -706q-12 -68 -43.5 -129.5t-77.5 -111.5t-105.5 -88t-123.5 -56l-43 -242h-385l-78 96h-12l33 197 q-12 10 -24.5 21.5t-22.5 23.5l-41 51q-72 55 -103 144q-21 57 -21 121q0 36 7 75zM147 354q-5 -31 -5 -61q0 -40 10 -77q16 -64 55 -112.5t98.5 -76t132.5 -27.5h142q74 0 142.5 27.5t124.5 76t96 113t52 137.5l125 707q5 32 5 62q0 40 -9 77q-16 64 -56 112t-99.5 75.5 t-133.5 27.5h-141q-74 0 -142.5 -27.5t-125 -75.5t-95 -112.5t-51.5 -138.5zM188 354l125 707q12 63 46 120.5t84.5 100.5t110.5 67.5t126 24.5h141q63 0 116.5 -24.5t88.5 -67.5t50 -100q9 -32 9 -65q0 -27 -6 -56l-125 -707q-12 -66 -47 -122t-85 -99t-111.5 -67.5 t-124.5 -24.5h-142q-66 0 -118 24.5t-86.5 67.5t-49.5 99q-7 31 -7 65q0 28 5 57zM328 -221h282l35 192q-37 -6 -72 -6h-141q-37 0 -70 6zM377 -180l18 104h170q10 0 15.5 -1t15.5 1l-18 -104h-201zM389 354q-3 -17 -3 -32q0 -78 91 -78h2h142h2q111 0 131 110l125 707 q3 16 3 29q0 84 -96 84h-141q-113 0 -131 -113zM430 354l125 707q12 72 82 72h141q62 0 62 -53q0 -9 -2 -19l-125 -707q-12 -69 -82 -69h-2h-142q-59 0 -59 49q0 9 2 20zM582 342h57q12 0 16 12l111 625h-53q-20 0 -23 -21z" />
<glyph unicode="r" horiz-adv-x="1075" d="M20 -57l269 1527h502q106 0 187 -49t122 -131l39 -47q45 -55 65 -128q10 -39 10 -81q0 -37 -8 -76l-37 -213q-20 -111 -87.5 -200.5t-163.5 -143.5l114 -555h-420l-77 97h-11l-6 30l-22 -127h-385l-78 97h-13zM88 0h283l86 494h161q74 0 142.5 27.5t125 75.5t95.5 112.5 t51 138.5l39 213q5 31 5 61q0 40 -9 76q-16 64 -55 112t-98.5 75.5t-133.5 27.5h-444l-105 -600h283l55 317h162q59 0 59 -49q0 -9 -2 -20l-38 -213q-10 -70 -80 -70h-445zM135 41l123 696h404q111 0 129 111l38 213q3 16 3 29q0 81 -93 81h-2h-202l-56 -317h-200l92 518 h403q63 0 116.5 -24.5t88.5 -66.5q35 -41 49 -99q8 -31 8 -64q0 -28 -6 -57l-39 -213q-10 -66 -45 -122t-84 -99t-110.5 -67.5t-124.5 -24.5h-203l-88 -494h-201zM500 459l75 -459h310l-103 487q-73 -29 -139 -29h-3q-68 0 -140 1zM549 418q31 -1 64 -1h33q50 1 104 17 l81 -393h-221zM670 836h8q14 0 14 12l25 129h-21z" />
<glyph unicode="s" horiz-adv-x="1079" d="M90 354l35 199h205l-23 27q-71 55 -103 144q-20 57 -21 121q0 37 7 75l25 141q14 86 59 160.5t112 130t146.5 88.5t165.5 33h103q104 0 183 -48.5t122 -126.5l45 -53q45 -55 65 -129q11 -41 10 -84q0 -36 -7 -74l-23 -122h-278q29 -20 50 -46t38 -55l47 -57 q45 -55 63 -128q10 -38 10 -79q0 -38 -8 -78l-24 -141q-14 -84 -59.5 -158t-110 -129t-144.5 -87t-164 -32h-102q-86 0 -152.5 32t-111.5 87l-45 53q-73 56 -103 144q-19 56 -19 117q0 36 7 75zM147 354q-5 -31 -5 -61q0 -40 10 -77q16 -64 56 -112.5t99.5 -76t132.5 -27.5 h103q74 0 142.5 27.5t124.5 76t96 113t52 137.5l25 142q5 32 5 61q0 40 -9 76q-16 63 -56 111.5t-99.5 76t-133.5 27.5h-102q-58 0 -58 52q0 9 2 20l25 141q12 72 82 72h102q33 0 46.5 -13.5t14.5 -35t-4 -47t-10 -48.5h283l12 72q5 32 5 62q0 41 -9 77q-16 64 -56 112 t-99.5 75.5t-132.5 27.5h-103q-74 0 -142.5 -27.5t-124.5 -75.5t-96 -112.5t-53 -138.5l-24 -141q-5 -32 -6 -62q0 -40 10 -76q16 -64 55 -112.5t98.5 -76.5t133.5 -28h102q61 0 61 -50q0 -9 -2 -19l-24 -142q-12 -69 -82 -69h-2h-103q-59 0 -59 49q0 9 2 20l25 142h-285z M188 354l19 101h203l-19 -101q-3 -17 -3 -32q0 -79 91 -78h2h103q113 0 133 110l24 142q3 17 3 31q0 79 -93 79h-2h-102q-66 0 -118 24.5t-87 67.5q-34 44 -50 100q-8 31 -9 64q0 28 6 58l24 141q12 63 47 120.5t85.5 100.5t110.5 67.5t126 24.5h102q63 0 116.5 -24.5 t88.5 -67.5q35 -42 51 -100q8 -31 8 -65q0 -28 -6 -56l-6 -31h-200q6 27 8 52.5t-5.5 46t-27.5 33t-61 12.5h-103q-113 0 -131 -113l-24 -141q-4 -19 -4 -35q0 -78 94 -78h102q63 0 116.5 -24.5t88.5 -66.5t50 -100q8 -32 8 -65q0 -27 -5 -55l-24 -142q-12 -66 -47 -122 t-85.5 -99t-112 -67.5t-124.5 -24.5h-103q-66 0 -118 24.5t-86 67.5t-50 99q-9 32 -9 67q0 27 5 55zM584 342h18q12 0 16 12l11 58h-33zM682 905h18q14 0 27.5 -1t28.5 -3l-23 31h-12l8 47h-14q-20 0 -23 -21z" />
<glyph unicode="t" horiz-adv-x="989" d="M205 1073l69 395h863l-2 -12l79 -96l-67 -383h-234l-200 -1131h-387l-78 97h-12l182 1034h-121l-80 96h-12zM272 1130h748l49 281h-747zM303 0h285l192 1094h-284zM319 1171l35 199h666l-35 -199h-666zM350 41l178 1012h203l-178 -1012h-203z" />
<glyph unicode="u" horiz-adv-x="1064" d="M90 354l197 1116h399l-2 -12l80 -96l-180 -1022h2q14 0 16 14l197 1116h395l-2 -12l80 -96l-197 -1110q-14 -84 -59 -158t-109.5 -129t-143.5 -87t-163 -32h-86q-86 0 -152.5 32t-111.5 87l-45 53q-73 56 -103 144q-19 56 -19 117q0 36 7 75zM147 354q-5 -31 -5 -61 q0 -40 10 -77q16 -64 56 -112.5t99.5 -76t132.5 -27.5h86q74 0 142.5 27.5t125 76t95.5 113t51 137.5l186 1059h-280l-187 -1059q-12 -71 -82 -71h-2h-86q-59 0 -59 51q0 9 2 20l186 1059h-284zM188 354l181 1018h202l-180 -1018q-3 -16 -2 -30q0 -82 90 -82h2h86 q115 0 133 112l181 1018h198l-180 -1018q-12 -66 -46 -122t-84 -99t-111.5 -67.5t-125.5 -24.5h-86q-66 0 -118 24.5t-86 67.5t-50 99q-9 32 -9 67q0 27 5 55z" />
<glyph unicode="v" horiz-adv-x="1116" d="M166 410q-9 88 -9 177q0 162 29 331l99 552h340l45 -55v-8l78 -96q-10 -66 -21.5 -127.5t-24.5 -116.5q-10 -49 -17 -94t-15 -88q-18 -97 -28 -183q-8 -71 -7 -141v-29q45 96 72.5 190.5t44.5 195.5l98 552h397l-2 -12l80 -96l-111 -619q-41 -199 -132 -401.5 t-251 -400.5l5 -4l-29 -29l-23 -27l-2 2l-37 -37h-333l-78 97h-8q-135 221 -160 467zM215 672q-2 -40 -2 -80q0 -80 8 -158q12 -117 47 -225.5t97 -208.5h284l37 41q-74 127 -115 235q-41 106 -58 206q-14 85 -14 169v29q3 98 18 207.5t41 237.5t54 288h-280l-88 -495 q-23 -125 -29 -246zM256 681q8 116 29 237l82 454h198l-19 -104.5t-18 -93.5q-10 -49 -19 -96.5t-17 -90.5q-23 -131 -31 -243q-3 -43 -3 -86q0 -70 8 -138q13 -110 53 -226t116 -253h-244q-57 96 -89 199.5t-43 213.5q-6 64 -6 130q0 48 3 97zM588 336q4 -20 20.5 -56 t36 -76t38.5 -76t32 -56q147 174 234 371.5t128 404.5h2l101 565h-283l-88 -495q-27 -156 -78 -298.5t-143 -283.5zM633 334q90 141 140 285.5t77 298.5l82 454h201l-93 -522q-41 -186 -116.5 -365.5t-198.5 -339.5q-12 20 -26.5 46t-27 51.5t-22.5 49t-16 42.5z" />
<glyph unicode="w" horiz-adv-x="1685" d="M160 660q6 128 28 258l99 552h397l-2 -12l80 -96l-96 -547q-14 -80 -21.5 -148.5t-7.5 -131.5q43 96 71.5 190t45.5 193l98 552h397l-2 -12l80 -96l-96 -547q-13 -79 -21 -147q-6 -53 -6 -104v-27q41 92 70 186t45 195l98 552h398l-3 -12l80 -96l-96 -547 q-23 -125 -59.5 -245.5t-95 -240.5t-139.5 -240t-189 -243h-330l-78 97h-8l-27 41q-10 -10 -16 -23l-18 -22l2 -2l-23 -21l-27 -35l-2 4l-38 -39h-332l-78 97h-8q-70 111 -109 227q-39 118 -53 240q-10 86 -10 174q0 38 2 76zM217 671q-2 -40 -2 -79q1 -81 9 -159 q12 -116 46.5 -224.5t98.5 -208.5h282l37 41q-66 117 -108 213t-62 196q-18 87 -17 182v28q3 112 27 258l88 495h-282l-88 -495q-23 -125 -29 -247zM259 683q7 116 28 235l82 454h200l-82 -454q-25 -145 -27 -258q0 -13 -1 -26q-1 -100 17 -188q20 -100 59.5 -197 t101.5 -208h-242q-57 96 -89 200.5t-43 214.5q-7 68 -7 138q0 44 3 89zM588 336q29 -70 59.5 -135.5t69.5 -128.5q29 37 58.5 73.5t53.5 77.5q20 -59 45 -115.5t60 -107.5h283l38 41q-66 115 -108.5 212t-62.5 197q-18 87 -18 182v28q3 112 28 258l88 495h-283l-88 -495 q-27 -154 -78 -299.5t-145 -282.5zM635 336q92 139 141 283.5t76 298.5l82 454h201l-82 -454q-25 -143 -27 -256v-22q0 -100 16 -192q18 -102 59.5 -199t102.5 -208h-246q-29 47 -58.5 122t-59.5 159q-47 -84 -73 -121t-42 -60q-27 47 -48.5 96.5t-41.5 98.5zM1155 336 q16 -66 55 -136.5t72 -127.5q164 193 251 405.5t126 440.5l88 495h-283l-88 -495q-27 -154 -78 -297.5t-143 -284.5zM1200 334q92 141 141 285.5t76 298.5l82 454h201l-82 -454q-35 -207 -111.5 -401.5t-216.5 -373.5q-25 43 -50.5 92.5t-39.5 98.5z" />
<glyph unicode="x" horiz-adv-x="1064" d="M-23 -57l426 762q-18 86 -38.5 184t-42 198.5t-42 198.5t-36.5 184h426l4 -16l76 -92l4 -33l80 141h426l-7 -12l80 -96l-426 -758l158 -758h-414l-88 97l-8 37q-41 -66 -74 -134h-411l-76 97h-17zM70 0h303l174 313l65 -313h306l-297 1413h-304l146 -706zM135 41l373 666 q-35 166 -68.5 332.5t-68.5 332.5h215q70 -340 139.5 -666.5t138.5 -664.5h-217l-78 391l-219 -391h-215zM713 1149l84 -393l368 657h-303zM756 1149q35 61 64.5 112.5t64.5 110.5h215l-283 -500q-10 47 -17 80t-13.5 61.5t-14.5 59.5t-16 76z" />
<glyph unicode="y" horiz-adv-x="1101" d="M145 707l88 495l52 271h395l-2 -13l80 -96l-119 -670h57q10 0 15.5 16.5t9.5 39.5l127 723h395l-2 -13l80 -96l-133 -760q-12 -70 -44 -131t-78 -111.5t-104.5 -87t-123.5 -55.5l-66 -373h-385l-78 97h-12l55 323q-29 23 -51 51l-43 52q-72 53 -102 140q-18 54 -18 117 q0 39 7 81zM203 707q-5 -34 -5 -65q0 -40 8 -76q15 -64 54 -111t99.5 -74t136.5 -27h141q74 0 143.5 27t125 75t94 112.5t51.5 138.5l125 708h-281l-111 -637q-4 -25 -8 -49t-13 -44.5t-26.5 -34t-50.5 -13.5h-141q-60 0 -60 51q0 9 2 19l125 708h-282q0 -2 -6.5 -34.5 t-13.5 -70.5t-13 -71t-6 -37zM244 707l118 667h203l-119 -667q-3 -15 -3 -29q0 -82 96 -82h141q45 0 70.5 13.5t40 36t19.5 50t9 58.5l111 620h198l-118 -667q-12 -66 -45 -123.5t-82 -99.5t-110.5 -65.5t-127.5 -23.5h-141q-68 0 -121 23.5t-88 65.5t-49 98q-8 30 -8 63 q0 30 6 62zM365 0h282l55 324q-70 -6 -141 -6l-141 6zM412 41l41 238q35 -4 50 -3.5t50 0.5h50.5t49.5 3l-41 -238h-200z" />
<glyph unicode="z" d="M-10 -57l579 1036h-264l-80 96h-12l70 398h989l-6 -13l80 -96l-574 -1022h275l-3 -12l80 -97l-69 -387h-973l-78 97h-14zM82 0h303l793 1415h-304zM147 41q98 174 190.5 339t184.5 327.5t185.5 327.5t189.5 339h215q-98 -174 -190.5 -339t-184.5 -327.5t-185 -327.5 t-190 -339h-215zM281 1133h397l160 282h-508zM330 1174l35 200h405l-113 -200h-327zM422 0h508l49 285h-399zM487 41q33 63 58.5 105t56.5 98h328l-35 -203h-408z" />
<glyph unicode="&#x2000;" horiz-adv-x="737" />
<glyph unicode="&#x2001;" horiz-adv-x="1475" />
<glyph unicode="&#x2002;" horiz-adv-x="737" />
<glyph unicode="&#x2003;" horiz-adv-x="1475" />
<glyph unicode="&#x2004;" horiz-adv-x="491" />
<glyph unicode="&#x2005;" horiz-adv-x="368" />
<glyph unicode="&#x2006;" horiz-adv-x="245" />
<glyph unicode="&#x2007;" horiz-adv-x="245" />
<glyph unicode="&#x2008;" horiz-adv-x="184" />
<glyph unicode="&#x2009;" horiz-adv-x="295" />
<glyph unicode="&#x200a;" horiz-adv-x="81" />
<glyph unicode="&#x202f;" horiz-adv-x="295" />
<glyph unicode="&#x205f;" horiz-adv-x="368" />
<glyph unicode="&#x25fc;" horiz-adv-x="1474" d="M0 0v1475h1475v-1475h-1475z" />
</font>
</defs>
</svg>
